<svg width="120" height="120" xmlns="http://www.w3.org/2000/svg"><g fill="none" fill-rule="evenodd"><path d="M90.867 94.502l-.246-.124-.942-.483a7.527 7.527 0 0 0-.248-.121l-.668-.307c-.07-.032-.08-.017-.022.033l.26.229c.057.05.154.125.217.168l1.05.713.23.151.722.464c.064.04.168.108.23.15l.964.629c.063.041.172.1.241.13l.484.212c.07.03.084.01.031-.044l-.391-.404a2.74 2.74 0 0 0-.203-.186l-1.057-.855a1.5 1.5 0 0 0-.23-.147l-.422-.208" fill="#4A4A4A"/><path d="M90.483 94.852c-.233.317-.354.618-.268.67a.74.74 0 0 0 .38.077.912.912 0 0 0 .401-.155c.099-.075.24-.222.313-.327.073-.105.202-.181.287-.17.084.011.216.025.293.03.076.006.228-.048.336-.12.108-.073.409-.374.668-.67l.306-.35c.26-.295.666-.794.903-1.107l.26-.344c.237-.313.613-.835.836-1.16l2.971-4.337c.222-.325.57-.866.774-1.203l1.095-1.813c.203-.337.52-.897.703-1.245l.746-1.413c.184-.347.469-.924.634-1.28l.132-.287c.165-.356.337-.809.382-1.005.046-.197-.109-.098-.342.218l-11.81 15.991" fill="#4A4A4A"/><path d="M90.483 94.852c-.233.317-.354.618-.268.67a.74.74 0 0 0 .38.077.912.912 0 0 0 .401-.155c.099-.075.24-.222.313-.327.073-.105.202-.181.287-.17.084.011.216.025.293.03.076.006.228-.048.336-.12.108-.073.409-.374.668-.67l.306-.35c.26-.295.666-.794.903-1.107l.26-.344c.237-.313.613-.835.836-1.16l2.971-4.337c.222-.325.57-.866.774-1.203l1.095-1.813c.203-.337.52-.897.703-1.245l.746-1.413c.184-.347.469-.924.634-1.28l.132-.287c.165-.356.337-.809.382-1.005.046-.197-.109-.098-.342.218l-11.81 15.991z"/><path d="M94.556 89.936c-.227.321-.582.773-.79 1.004-.208.23-.079.503.286.606l1.695.476c.365.103.926.35 1.247.548l7.397 4.576c.321.199.72.437.886.53.165.091.432.14.593.109.16-.032.408-.183.55-.336.14-.153.362-.47.492-.703a5.89 5.89 0 0 0 .385-.909c.082-.266.15-.552.152-.636 0-.083-.22-.368-.49-.632l-6.903-6.744c-.27-.264-.684-.723-.919-1.02l-.827-1.044c-.236-.297-.614-.277-.84.044l-2.914 4.13" fill="#4A4A4A"/><path d="M94.556 89.936c-.227.321-.582.773-.79 1.004-.208.23-.079.503.286.606l1.695.476c.365.103.926.35 1.247.548l7.397 4.576c.321.199.72.437.886.53.165.091.432.14.593.109.16-.032.408-.183.55-.336.14-.153.362-.47.492-.703a5.89 5.89 0 0 0 .385-.909c.082-.266.15-.552.152-.636 0-.083-.22-.368-.49-.632l-6.903-6.744c-.27-.264-.684-.723-.919-1.02l-.827-1.044c-.236-.297-.614-.277-.84.044l-2.914 4.13z"/><path d="M102.323 78.227a.321.321 0 0 0 .059.473l1.033.709c.155.106.417.27.58.364l1.274.729c.164.093.434.243.6.332l.858.46c.166.089.364.175.439.192a.53.53 0 0 0 .309-.068c.095-.053.246-.149.336-.212.09-.062.237-.257.327-.432l.069-.136c.09-.175.21-.461.27-.636a.608.608 0 0 0-.134-.563l-1.364-1.39c-.132-.136-.355-.35-.494-.478l-1.843-1.684a.326.326 0 0 0-.478.047l-1.841 2.293" fill="#4A4A4A"/><path d="M102.323 78.227a.321.321 0 0 0 .059.473l1.033.709c.155.106.417.27.58.364l1.274.729c.164.093.434.243.6.332l.858.46c.166.089.364.175.439.192a.53.53 0 0 0 .309-.068c.095-.053.246-.149.336-.212.09-.062.237-.257.327-.432l.069-.136c.09-.175.21-.461.27-.636a.608.608 0 0 0-.134-.563l-1.364-1.39c-.132-.136-.355-.35-.494-.478l-1.843-1.684a.326.326 0 0 0-.478.047l-1.841 2.293z"/><path d="M90.544 94.883c-.218.328-.46.545-.539.482a.738.738 0 0 1-.201-.33.91.91 0 0 1 .008-.431c.037-.119.127-.301.2-.406.073-.105.101-.252.062-.328a6.27 6.27 0 0 1-.129-.264c-.031-.07-.032-.231 0-.358.03-.126.21-.512.4-.856l.223-.408c.19-.345.519-.897.732-1.227l.234-.362c.214-.33.576-.862.805-1.182l3.06-4.276c.228-.32.618-.832.864-1.138l1.33-1.649a30.3 30.3 0 0 1 .929-1.086l1.073-1.185c.263-.291.707-.756.986-1.033l.224-.223c.279-.276.645-.593.814-.702.17-.11.13.068-.088.396L90.544 94.883" fill="#4A4A4A"/><path d="M90.544 94.883c-.218.328-.46.545-.539.482a.738.738 0 0 1-.201-.33.91.91 0 0 1 .008-.431c.037-.119.127-.301.2-.406.073-.105.101-.252.062-.328a6.27 6.27 0 0 1-.129-.264c-.031-.07-.032-.231 0-.358.03-.126.21-.512.4-.856l.223-.408c.19-.345.519-.897.732-1.227l.234-.362c.214-.33.576-.862.805-1.182l3.06-4.276c.228-.32.618-.832.864-1.138l1.33-1.649a30.3 30.3 0 0 1 .929-1.086l1.073-1.185c.263-.291.707-.756.986-1.033l.224-.223c.279-.276.645-.593.814-.702.17-.11.13.068-.088.396L90.544 94.883z"/><path d="M93.773 89.376c-.225.323-.528.812-.674 1.086-.146.274-.446.246-.667-.062l-1.028-1.429a5.887 5.887 0 0 0-.94-.985L83.632 82.6a29.34 29.34 0 0 1-.8-.65c-.143-.125-.28-.36-.306-.52-.025-.162.032-.446.128-.632.095-.185.317-.502.492-.703.175-.201.5-.504.722-.673.222-.169.468-.33.546-.36.078-.03.42.08.761.244l8.699 4.18c.34.164.913.395 1.272.515l1.265.42c.36.12.47.481.245.804l-2.884 4.151" fill="#4A4A4A"/><path d="M93.773 89.376c-.225.323-.528.812-.674 1.086-.146.274-.446.246-.667-.062l-1.028-1.429a5.887 5.887 0 0 0-.94-.985L83.632 82.6a29.34 29.34 0 0 1-.8-.65c-.143-.125-.28-.36-.306-.52-.025-.162.032-.446.128-.632.095-.185.317-.502.492-.703.175-.201.5-.504.722-.673.222-.169.468-.33.546-.36.078-.03.42.08.761.244l8.699 4.18c.34.164.913.395 1.272.515l1.265.42c.36.12.47.481.245.804l-2.884 4.151z"/><path d="M102.11 78.078a.321.321 0 0 1-.464.107l-1.02-.728c-.153-.11-.397-.3-.54-.422l-1.12-.947a30.577 30.577 0 0 1-.519-.451l-.724-.648a2.486 2.486 0 0 1-.33-.347.529.529 0 0 1-.043-.313c.018-.108.055-.283.084-.39.028-.105.16-.31.295-.454l.103-.111c.134-.144.362-.356.506-.471a.608.608 0 0 1 .574-.067l1.774.806c.172.078.45.214.617.301l2.214 1.156c.167.087.22.297.119.465l-1.525 2.514" fill="#4A4A4A"/><path d="M102.11 78.078a.321.321 0 0 1-.464.107l-1.02-.728c-.153-.11-.397-.3-.54-.422l-1.12-.947a30.577 30.577 0 0 1-.519-.451l-.724-.648a2.486 2.486 0 0 1-.33-.347.529.529 0 0 1-.043-.313c.018-.108.055-.283.084-.39.028-.105.16-.31.295-.454l.103-.111c.134-.144.362-.356.506-.471a.608.608 0 0 1 .574-.067l1.774.806c.172.078.45.214.617.301l2.214 1.156c.167.087.22.297.119.465l-1.525 2.514z"/><path fill="#4A4A4A" d="M89.992 95.295l10.811-16.3 1.31-1.571 1.297-1.973 1.09.719-2.467 3.163-10.2 14.687-1.592 1.488-.25-.213"/><path d="M89.992 95.295l10.811-16.3 1.31-1.571 1.297-1.973 1.09.719-2.467 3.163-10.2 14.687-1.592 1.488z"/><path d="M104.642 74.888c.21.146.061.72-.331 1.281-.393.56-.881.897-1.091.75-.21-.147-.062-.721.331-1.282.393-.56.881-.896 1.091-.75" fill="#4A4A4A"/><path d="M104.642 74.888c.21.146.061.72-.331 1.281-.393.56-.881.897-1.091.75-.21-.147-.062-.721.331-1.282.393-.56.881-.896 1.091-.75z"/><path d="M96.16 84.476c1.394-1.569 1.94-1.174 2.259-.951.306.214.811.606-.143 2.388-.908 1.696-3.267 4.786-3.426 5.012-.326.465-1.074.503-1.672.085-.598-.419-.818-1.135-.493-1.6.153-.218 2.251-3.555 3.476-4.934" fill="#4A4A4A"/><path d="M96.16 84.476c1.394-1.569 1.94-1.174 2.259-.951.306.214.811.606-.143 2.388-.908 1.696-3.267 4.786-3.426 5.012-.326.465-1.074.503-1.672.085-.598-.419-.818-1.135-.493-1.6.153-.218 2.251-3.555 3.476-4.934z" stroke="#FFFFFE" stroke-width=".1"/><path d="M95.366 90.169l-.71-.275c-.352-.137-.824-.472-1.048-.745l-.406-.496m1.013-1.546l.456.494c.252.272.74.62 1.087.771l.705.31m-1.337-2.916l.727.19c.367.097.847.428 1.067.737l.464.654"/><g fill="#7ED321"><path d="M10.12 64a51.243 51.243 0 0 1-.12-3.5C10 32.61 32.61 10 60.5 10S111 32.61 111 60.5c0 1.176-.04 2.344-.12 3.5h-4.893c.088-1.155.132-2.322.132-3.5 0-25.129-20.37-45.5-45.5-45.5-25.129 0-45.5 20.371-45.5 45.5 0 1.178.045 2.345.133 3.5h-5.133z"/></g></g></svg>